<?xml version="1.0" encoding="utf-8"?>
<!-- Generator: Adobe Illustrator 25.1.0, SVG Export Plug-In . SVG Version: 6.00 Build 0)  -->
<svg version="1.1" id="Camada_1" xmlns="http://www.w3.org/2000/svg" xmlns:xlink="http://www.w3.org/1999/xlink" x="0px" y="0px"
	 viewBox="0 0 250 250" style="enable-background:new 0 0 250 250;" xml:space="preserve">
<style type="text/css">
	.st0{fill:#5E54AC;}
	.st1{fill:#453D81;}
	.st2{fill:#1DE8F1;}
	.st3{fill:#B7E0F6;}
	.st4{fill:#FFBB85;}
	.st5{fill:#6AA9FF;}
	.st6{fill:#F5A86C;}
	.st7{fill:#2682FF;}
</style>
<g>
	<path class="st0" d="M195.6,64.1H54.4c-8.3,0-15.1,6.3-15.1,14.1v93.7c0,7.8,6.7,14.1,15.1,14.1h141.2c8.3,0,15.1-6.3,15.1-14.1
		V78.1C210.7,70.4,203.9,64.1,195.6,64.1z"/>
	<path class="st1" d="M210.7,78.1v93.7c0,7.8-6.7,14.1-15.1,14.1H89.5V64.1h106.1C203.9,64.1,210.7,70.4,210.7,78.1z"/>
	<path class="st2" d="M187.2,157.8h-46.9c-6.2,0-6.2-9.4,0-9.4h46.9C193.4,148.4,193.4,157.8,187.2,157.8z"/>
	<path class="st2" d="M187.2,139.1h-46.9c-6.2,0-6.2-9.4,0-9.4h46.9C193.4,129.7,193.4,139.1,187.2,139.1z"/>
	<path class="st2" d="M187.2,120.3h-46.9c-6.2,0-6.2-9.4,0-9.4h46.9C193.4,110.9,193.4,120.3,187.2,120.3z"/>
	<path class="st3" d="M177.9,101.6h-28.1c-6.2,0-6.2-9.4,0-9.4h28.1C184,92.2,184.1,101.6,177.9,101.6z"/>
	<path class="st4" d="M109.8,103c0,11.3-9.1,20.4-20.4,20.4l0,0c-11.3,0-20.4-9.1-20.4-20.4c0-5.4,2.1-10.6,6-14.5
		c3.8-3.9,9-6.1,14.4-6l0,0C100.7,82.6,109.8,91.8,109.8,103L109.8,103z"/>
	<path class="st5" d="M125.3,152.8c0.2,4-1.3,7.8-4.2,10.6c-2.9,2.7-6.8,4.1-10.8,3.9H69.6c-4,0.2-7.8-1.2-10.8-3.9
		c-2.8-2.8-4.4-6.7-4.2-10.6c0-1.7,0.1-3.4,0.2-5c0.1-1.8,0.4-3.6,0.7-5.4c0.3-1.8,0.8-3.6,1.3-5.4c0.5-1.8,1.3-3.4,2.2-5
		c0.9-1.6,2-3.1,3.3-4.4c1.4-1.3,3-2.3,4.8-3c2-0.8,4-1.1,6.1-1.1c0.9,0,1.7,0.4,3.3,1.4c1,0.7,2.2,1.4,3.5,2.2
		c1.4,0.8,2.9,1.5,4.5,2c1.6,0.5,3.3,0.8,4.9,0.9H90c1.9,0,3.7-0.3,5.5-0.9c1.6-0.5,3.1-1.2,4.5-2l3.5-2.2c1.6-1,2.4-1.4,3.3-1.4
		c2.1,0,4.2,0.4,6.1,1.1c1.8,0.7,3.4,1.7,4.8,3c1.3,1.3,2.4,2.7,3.3,4.4c0.9,1.6,1.7,3.3,2.2,5c0.6,1.8,1,3.6,1.3,5.4
		c0.3,1.8,0.6,3.6,0.7,5.4C125.3,149.4,125.3,151.1,125.3,152.8z"/>
	<path class="st6" d="M89.5,123.4L89.5,123.4V82.6l0,0c11.3,0,20.4,9.1,20.4,20.4c0,5.4-2.1,10.6-6,14.4
		C100.1,121.4,94.9,123.5,89.5,123.4z"/>
	<path class="st7" d="M125.3,152.8c0.2,4-1.3,7.8-4.2,10.6c-2.9,2.7-6.8,4.1-10.8,3.9H89.4V130H90c1.9,0,3.7-0.3,5.5-0.9
		c1.6-0.5,3.1-1.2,4.5-2l3.5-2.2c1.6-1,2.4-1.4,3.3-1.4c2.1,0,4.2,0.4,6.1,1.1c1.8,0.7,3.4,1.7,4.8,3c1.3,1.3,2.4,2.7,3.3,4.4
		c0.9,1.6,1.7,3.3,2.2,5c0.6,1.8,1,3.6,1.3,5.4c0.3,1.8,0.6,3.6,0.7,5.4C125.3,149.4,125.3,151.1,125.3,152.8z"/>
</g>
</svg>
