<svg width="691" height="436" viewBox="0 0 691 436" fill="none" xmlns="http://www.w3.org/2000/svg">
<path d="M446.952 422.55C449.448 421.151 452.253 420.395 455.113 420.348C457.974 420.301 460.802 420.966 463.342 422.283C465.882 423.6 468.055 425.527 469.665 427.891C471.275 430.255 472.271 432.982 472.565 435.827C462.101 435.827 451.843 433.394 446.952 422.55Z" fill="#EBEBEB"/>
<path d="M459.148 411.831C462.666 412.984 466.416 413.243 470.059 412.587C473.703 411.932 477.126 410.38 480.021 408.073C482.916 405.766 485.191 402.776 486.643 399.371C488.094 395.967 488.676 392.255 488.335 388.57C475.052 391.17 462.577 396.855 459.148 411.831Z" fill="#EBEBEB"/>
<path d="M413.589 429.52C413.8 429.418 414.019 429.332 414.242 429.261L416.159 428.619C417.817 428.081 420.22 427.293 423.173 426.268C429.079 424.197 437.203 421.266 445.968 417.455C450.341 415.539 454.444 413.592 458.132 411.727C461.821 409.863 465.043 408.02 467.706 406.394C469.815 405.132 471.849 403.748 473.798 402.251C475.166 401.215 475.871 400.48 475.871 400.522C475.871 400.563 475.726 400.718 475.404 401.039C474.942 401.531 474.447 401.991 473.923 402.417C472.016 403.997 470.005 405.446 467.903 406.756C465.25 408.434 462.007 410.288 458.35 412.214C454.692 414.141 450.558 416.067 446.175 417.993C437.42 421.804 429.266 424.725 423.318 426.672C420.345 427.656 417.92 428.381 416.231 428.857L414.294 429.406C414.065 429.474 413.828 429.513 413.589 429.52Z" fill="#E0E0E0"/>
<path d="M460.391 428.629C460.391 428.712 459.127 427.863 457.034 426.734C454.314 425.274 451.44 424.12 448.465 423.296C445.485 422.486 442.423 422.017 439.337 421.898C436.964 421.804 435.493 421.898 435.493 421.815C435.83 421.715 436.178 421.659 436.529 421.649C437.455 421.551 438.385 421.506 439.316 421.515C445.604 421.542 451.773 423.228 457.2 426.403C458.015 426.88 458.804 427.402 459.562 427.967C459.867 428.149 460.146 428.372 460.391 428.629Z" fill="#E0E0E0"/>
<path d="M213.555 382.066C212.286 385.442 211.877 389.081 212.365 392.654C212.852 396.228 214.222 399.624 216.349 402.537C218.476 405.451 221.295 407.789 224.551 409.343C227.807 410.896 231.399 411.616 235.003 411.437C233.014 398.398 227.999 386.022 213.555 382.066Z" fill="#EBEBEB"/>
<path d="M211.504 375.666C211.597 375.666 211.949 377.095 212.706 379.363C213.686 382.321 214.917 385.189 216.384 387.938C217.86 390.683 219.569 393.295 221.492 395.747C222.974 397.632 223.979 398.73 223.917 398.792C223.854 398.854 223.606 398.564 223.129 398.098C222.652 397.632 221.979 396.907 221.202 396.027C217.129 391.198 214.112 385.571 212.343 379.508C212.012 378.348 211.773 377.437 211.649 376.743C211.557 376.391 211.509 376.029 211.504 375.666Z" fill="#E0E0E0"/>
<path d="M6.49646 120.727C4.53066 125.957 3.89709 131.594 4.6528 137.13C5.40851 142.666 7.52978 147.927 10.8256 152.44C14.1214 156.953 18.4883 160.575 23.5331 162.981C28.5779 165.387 34.1422 166.502 39.7249 166.224C36.6166 146.028 28.8767 126.869 6.49646 120.727Z" fill="#EBEBEB"/>
<path d="M3.32593 110.816C3.53643 111.314 3.69948 111.83 3.81291 112.359C4.0823 113.395 4.50711 114.803 5.07698 116.574C8.05455 125.797 12.6738 134.407 18.7124 141.989C19.8625 143.439 20.8364 144.599 21.5203 145.376C21.9075 145.761 22.2546 146.184 22.5564 146.639C22.1394 146.295 21.7481 145.922 21.3856 145.521C20.6499 144.786 19.6345 143.657 18.4326 142.227C12.1807 134.732 7.51393 126.047 4.71433 116.698C4.18591 114.907 3.81291 113.446 3.60568 112.421C3.46733 111.895 3.37375 111.358 3.32593 110.816Z" fill="#E0E0E0"/>
<path d="M41.4967 326.876C38.6871 329.137 36.4841 332.061 35.0857 335.385C33.6874 338.708 33.1377 342.327 33.486 345.916C33.8344 349.505 35.0699 352.95 37.0813 355.943C39.0928 358.936 41.8171 361.382 45.0092 363.062C49.9411 350.83 51.9201 337.626 41.4967 326.876Z" fill="#EBEBEB"/>
<path d="M42.9991 320.33C43.082 320.33 42.6572 321.78 42.1495 324.121C40.8077 330.218 40.5447 336.502 41.3724 342.69C41.6832 345.072 41.9837 346.522 41.9008 346.543C41.7523 346.212 41.6445 345.864 41.5796 345.507C41.4034 344.865 41.1962 343.912 40.989 342.721C39.9507 336.493 40.2189 330.116 41.7764 323.996C42.0027 323.072 42.2759 322.159 42.595 321.262C42.6915 320.936 42.8272 320.623 42.9991 320.33Z" fill="#E0E0E0"/>
<path d="M233.791 64.9981C237.022 66.6125 240.605 67.3972 244.216 67.2815C247.826 67.1658 251.351 66.1533 254.473 64.3354C257.594 62.5175 260.214 59.9513 262.095 56.8685C263.976 53.7857 265.059 50.2833 265.248 46.6772C252.068 47.3194 239.241 51.0374 233.822 64.9981" fill="#EBEBEB"/>
<path d="M227.211 66.3653C227.211 66.2825 228.672 66.0753 231.014 65.5575C234.057 64.8859 237.038 63.9574 239.925 62.7819C242.803 61.5919 245.576 60.1611 248.214 58.5046C250.286 57.2308 251.436 56.3401 251.488 56.4333C251.266 56.7025 251.008 56.9395 250.721 57.1376C250.203 57.5725 249.416 58.1732 248.421 58.8464C243.187 62.3874 237.273 64.7999 231.055 65.9303C229.874 66.1478 228.9 66.2825 228.237 66.3343C227.899 66.3954 227.553 66.4058 227.211 66.3653Z" fill="#E0E0E0"/>
<path d="M206.935 63.1132C211.564 62.0682 215.87 59.9127 219.481 56.8327C223.091 53.7527 225.897 49.8407 227.657 45.4345C229.329 40.9911 229.892 36.2075 229.298 31.4976C228.704 26.7877 226.971 22.2934 224.248 18.4037C211.193 29.8892 201.018 44.2952 206.924 63.1132" fill="#EBEBEB"/>
<path d="M201.288 69.9278C201.54 69.5528 201.832 69.2057 202.158 68.8922C202.749 68.2397 203.588 67.2662 204.583 66.0441C207.181 62.8556 209.5 59.4495 211.514 55.8635C213.517 52.2392 215.202 48.4484 216.55 44.5334C217.057 43.042 217.451 41.82 217.7 40.9707C217.798 40.5201 217.947 40.0822 218.145 39.6658C218.107 40.125 218.024 40.5795 217.897 41.0225C217.71 41.8924 217.379 43.0938 216.912 44.6577C214.413 52.6096 210.316 59.968 204.873 66.2823C203.836 67.4733 202.956 68.4158 202.313 69.0268C202.002 69.3601 201.658 69.662 201.288 69.9278Z" fill="#E0E0E0"/>
<path d="M291.928 417.89C292.91 419.824 294.358 421.485 296.142 422.722C297.925 423.96 299.988 424.735 302.145 424.978C304.302 425.221 306.486 424.925 308.501 424.117C310.515 423.308 312.297 422.011 313.686 420.344C307.097 415.911 299.554 413.094 291.928 417.89Z" fill="#EBEBEB"/>
<path d="M288.26 416.191C290.683 417.267 293.175 418.18 295.72 418.925C298.309 419.491 300.933 419.889 303.574 420.116C302.8 420.272 302.008 420.318 301.222 420.251C297.405 420.134 293.662 419.176 290.26 417.444C289.53 417.137 288.854 416.714 288.26 416.191Z" fill="#E0E0E0"/>
<path d="M387.976 46.0455C389.313 47.758 391.056 49.1109 393.046 49.9825C395.037 50.854 397.213 51.2167 399.379 51.038C401.545 50.8592 403.632 50.1445 405.452 48.9584C407.273 47.7723 408.77 46.1519 409.807 44.2435C402.482 41.1365 394.545 39.873 387.976 46.0455Z" fill="#EBEBEB"/>
<path d="M384.049 45.0927C386.633 45.6802 389.254 46.0954 391.893 46.3354C394.544 46.3897 397.195 46.2687 399.83 45.973C399.103 46.2919 398.33 46.4912 397.54 46.5633C395.664 46.8763 393.76 46.9805 391.862 46.874C389.961 46.7665 388.078 46.4504 386.246 45.9315C385.476 45.7644 384.735 45.4816 384.049 45.0927Z" fill="#E0E0E0"/>
<path d="M636.884 77.9128C640.362 78.8715 644.023 78.9509 647.538 78.1441C651.054 77.3372 654.314 75.6694 657.025 73.2906C659.735 70.9119 661.812 67.8968 663.067 64.5167C664.323 61.1366 664.718 57.4975 664.217 53.9269C651.411 57.0339 639.526 63.1753 636.884 77.9128Z" fill="#EBEBEB"/>
<path d="M630.698 80.5123C630.698 80.4294 632.076 79.9427 634.273 78.9899C640.014 76.5255 645.275 73.0687 649.815 68.7782C651.566 67.1419 652.561 66.0337 652.633 66.0959C652.461 66.4029 652.252 66.6881 652.012 66.9451C651.587 67.4629 650.975 68.1879 650.084 69.0164C645.639 73.4986 640.306 77.0047 634.429 79.3109C633.31 79.7459 632.356 80.067 631.735 80.243C631.404 80.3822 631.055 80.4729 630.698 80.5123Z" fill="#E0E0E0"/>
<path d="M661.399 393.552C667.514 392.141 673.182 389.232 677.893 385.088C682.603 380.943 686.209 375.693 688.386 369.809C690.562 363.926 691.241 357.593 690.361 351.382C689.481 345.172 687.069 339.277 683.344 334.229C666.362 349.65 653.234 368.82 661.399 393.552Z" fill="#EBEBEB"/>
<path d="M654.094 402.676C654.441 402.175 654.83 401.704 655.255 401.267C656.032 400.397 657.12 399.103 658.415 397.477C659.71 395.851 661.192 393.852 662.746 391.573C664.3 389.295 665.854 386.695 667.377 383.899C668.9 381.103 670.144 378.348 671.211 375.811C672.278 373.273 673.107 370.922 673.739 368.934C674.371 366.945 674.858 365.33 675.159 364.201C675.297 363.61 675.474 363.029 675.687 362.461C675.629 363.066 675.521 363.665 675.366 364.253C675.128 365.402 674.703 367.039 674.112 369.048C673.522 371.057 672.703 373.418 671.677 375.997C670.651 378.576 669.356 381.331 667.854 384.158C666.419 386.8 664.853 389.368 663.16 391.853C661.575 394.131 660.052 396.12 658.715 397.715C657.379 399.31 656.229 400.584 655.41 401.412C655.006 401.868 654.566 402.29 654.094 402.676Z" fill="#E0E0E0"/>
<path d="M413.973 253.302C414.311 288.97 406.533 316.243 390.639 335.12C374.745 353.996 352.986 363.562 325.363 363.818C297.595 364.08 275.519 354.935 259.134 336.383C242.75 317.831 234.388 290.724 234.05 255.063L233.449 192.343C233.11 156.82 240.888 129.548 256.782 110.526C272.677 91.5042 294.494 81.8795 322.234 81.6516C349.864 81.3823 371.878 90.5894 388.277 109.273C404.675 127.956 413.054 155.052 413.413 190.562L413.973 253.302ZM367.513 184.006C367.306 161.546 363.379 144.975 355.732 134.294C348.086 123.613 337.034 118.324 322.576 118.428C308.126 118.566 297.215 124.065 289.845 134.926C282.475 145.787 278.897 162.444 279.111 184.897L279.847 261.111C280.061 283.689 284.022 300.366 291.731 311.144C299.44 321.922 310.512 327.242 324.949 327.104C339.393 326.972 350.272 321.476 357.587 310.616C364.902 299.755 368.445 282.971 368.217 260.262L367.513 184.006Z" fill="#00719E"/>
<path d="M440.352 253.054C440.698 288.708 432.92 315.98 417.019 334.871C401.118 353.761 379.359 363.324 351.743 363.559C323.989 363.828 301.916 354.687 285.524 336.134C269.133 317.582 260.761 290.462 260.409 254.773L259.808 192.053C259.463 156.523 267.24 129.251 283.141 110.236C299.042 91.2211 320.87 81.5929 348.624 81.3512C376.254 81.0958 398.265 90.3028 414.657 108.972C431.048 127.642 439.413 154.749 439.751 190.293L440.352 253.054ZM393.893 183.747C393.685 161.294 389.758 144.723 382.112 134.035C374.465 123.347 363.413 118.059 348.956 118.169C334.512 118.3 323.605 123.8 316.235 134.667C308.865 145.535 305.287 162.192 305.501 184.638L306.237 260.842C306.458 283.426 310.419 300.107 318.121 310.885C325.823 321.663 336.895 326.983 351.339 326.845C365.783 326.713 376.662 321.214 383.977 310.346C391.292 299.479 394.842 282.68 394.628 259.951L393.893 183.747Z" fill="#0084C6"/>
<path d="M435.887 299.493L435.452 299.337L434.208 298.861C433.659 298.654 432.944 298.509 432.136 298.271C431.168 298.082 430.188 297.964 429.204 297.919C424.779 297.629 418.148 299.244 411.735 304.039C408.26 306.666 405.149 309.741 402.482 313.184C399.508 316.819 396.597 320.931 393.292 325.084C389.907 329.53 385.86 333.431 381.293 336.652C376.292 340.008 370.646 342.287 364.715 343.343C358.806 344.399 352.74 344.194 346.915 342.742C341.534 341.336 336.306 339.397 331.311 336.953C326.493 334.726 321.986 332.458 317.686 330.583C313.705 328.813 309.571 327.409 305.335 326.389C301.839 325.559 298.257 325.145 294.663 325.156C291.952 325.183 289.254 325.548 286.633 326.244C284.989 326.729 283.391 327.356 281.857 328.118L280.675 328.75L280.261 328.947C280.379 328.85 280.508 328.767 280.644 328.698L281.805 328.025C283.329 327.212 284.929 326.55 286.581 326.047C289.213 325.305 291.929 324.905 294.663 324.856C298.285 324.813 301.899 325.203 305.428 326.016C309.692 327.011 313.854 328.398 317.862 330.159C322.193 332.013 326.7 334.301 331.508 336.487C336.488 338.899 341.694 340.818 347.05 342.214C352.814 343.647 358.818 343.842 364.664 342.783C370.502 341.739 376.06 339.493 380.983 336.186C385.49 333.014 389.487 329.172 392.836 324.794C396.141 320.651 399.053 316.56 402.057 312.925C404.766 309.468 407.919 306.383 411.434 303.749C417.941 298.944 424.665 297.37 429.142 297.722C430.135 297.784 431.122 297.923 432.094 298.136C432.923 298.385 433.638 298.55 434.167 298.778L435.4 299.306C435.57 299.346 435.734 299.409 435.887 299.493Z" fill="white"/>
<path d="M442.425 230.362C442.425 230.362 441.679 230.518 440.404 230.942C438.618 231.591 436.933 232.491 435.4 233.614C433.431 234.992 431.255 236.918 428.758 238.917C425.998 241.056 423.014 242.89 419.858 244.385C414.12 247.136 407.902 248.743 401.55 249.118C400.348 249.211 399.239 249.18 398.275 249.201C397.312 249.222 396.483 249.149 395.799 249.097L394.245 248.932C394.062 248.926 393.88 248.895 393.706 248.839C393.889 248.821 394.073 248.821 394.255 248.839L395.809 248.89H398.275C399.229 248.839 400.348 248.89 401.529 248.725C407.81 248.251 413.947 246.614 419.63 243.898C422.756 242.421 425.719 240.62 428.468 238.523C430.986 236.566 433.172 234.66 435.192 233.345C436.775 232.225 438.523 231.358 440.373 230.777C440.876 230.632 441.389 230.521 441.907 230.445C442.075 230.397 442.249 230.369 442.425 230.362Z" fill="white"/>
<path d="M307.076 254.359C306.883 254.356 306.691 254.329 306.506 254.276C306.143 254.193 305.584 254.11 304.9 253.924C302.957 253.339 301.093 252.522 299.346 251.49C296.794 249.914 294.369 248.142 292.094 246.187C289.493 244.043 286.716 241.578 283.535 239.383C279.998 236.918 275.97 235.245 271.727 234.479C267.484 233.712 263.125 233.869 258.948 234.94C257.57 235.292 256.876 235.561 256.814 235.509C256.972 235.402 257.147 235.321 257.332 235.271C257.843 235.066 258.365 234.89 258.896 234.743C260.835 234.169 262.835 233.822 264.854 233.707C271.602 233.216 278.312 235.083 283.836 238.989C287.058 241.216 289.835 243.691 292.415 245.856C294.653 247.817 297.036 249.606 299.543 251.21C301.249 252.262 303.066 253.12 304.962 253.768C305.677 253.928 306.382 254.125 307.076 254.359Z" fill="white"/>
<path d="M307.262 156.457C306.704 156.716 306.126 156.928 305.532 157.089C304.973 157.286 304.278 157.503 303.46 157.711C302.641 157.918 301.729 158.187 300.683 158.373C299.637 158.56 298.507 158.819 297.264 158.974C296.02 159.129 294.705 159.274 293.306 159.399C290.268 159.59 287.22 159.555 284.188 159.295C281.158 158.99 278.155 158.457 275.205 157.7C273.847 157.317 272.563 156.975 271.392 156.54C270.221 156.105 269.123 155.722 268.149 155.318C267.175 154.914 266.304 154.5 265.538 154.138C264.771 153.775 264.139 153.444 263.621 153.102C263.073 152.828 262.546 152.513 262.046 152.159C262.62 152.371 263.177 152.623 263.714 152.915C264.243 153.185 264.895 153.495 265.662 153.816C266.429 154.138 267.299 154.562 268.294 154.914C269.288 155.266 270.366 155.701 271.537 156.064C272.708 156.426 273.982 156.799 275.329 157.162C281.187 158.653 287.241 159.222 293.275 158.85C294.663 158.746 295.979 158.663 297.212 158.477C298.445 158.291 299.574 158.135 300.61 157.949C301.647 157.762 302.569 157.545 303.387 157.358C304.206 157.172 304.91 157.006 305.46 156.841C306.051 156.671 306.653 156.543 307.262 156.457Z" fill="white"/>
<path d="M436.539 156.198C436.539 156.198 436.384 156.136 436.104 155.991L434.902 155.297C434.281 154.914 433.638 154.568 432.975 154.262C432.208 153.889 431.359 153.413 430.354 153.029L428.8 152.387C428.25 152.159 427.66 151.994 427.069 151.787C425.878 151.352 424.562 151.051 423.194 150.751C417.172 149.371 410.922 149.314 404.876 150.585C403.497 150.917 402.171 151.196 400.98 151.621C400.379 151.818 399.788 151.973 399.239 152.18L397.674 152.802C396.774 153.153 395.892 153.551 395.032 153.993C394.363 154.298 393.712 154.644 393.084 155.028L391.872 155.701C391.731 155.786 391.582 155.856 391.427 155.908C391.427 155.908 391.551 155.784 391.82 155.608L392.981 154.842C393.595 154.433 394.235 154.067 394.898 153.744C395.753 153.275 396.631 152.85 397.529 152.47L399.094 151.818C399.643 151.59 400.244 151.424 400.845 151.217C402.135 150.804 403.446 150.458 404.772 150.181C410.884 148.841 417.221 148.898 423.308 150.347C424.697 150.72 426.023 151.041 427.214 151.497C427.815 151.714 428.406 151.9 428.945 152.128L430.509 152.812C431.401 153.206 432.273 153.645 433.12 154.127C433.773 154.466 434.403 154.846 435.006 155.266L436.156 156.053C436.289 156.087 436.418 156.135 436.539 156.198Z" fill="white"/>
<path d="M373.191 85.8563C372.952 86.0211 372.703 86.1699 372.445 86.3017L370.248 87.4927C368.331 88.5283 365.555 89.9783 362.073 91.7078C355.131 95.1462 345.371 99.8274 333.839 102.748C328.413 104.117 322.854 104.888 317.261 105.047C312.697 105.184 308.132 104.794 303.657 103.887C300.641 103.274 297.692 102.373 294.85 101.194C293.813 100.801 293.099 100.387 292.57 100.159C292.303 100.048 292.046 99.9124 291.803 99.7549C292.085 99.8345 292.359 99.9384 292.622 100.066C293.15 100.262 293.907 100.646 294.932 101.008C297.784 102.106 300.728 102.944 303.729 103.514C308.183 104.365 312.719 104.712 317.251 104.55C322.798 104.356 328.309 103.578 333.694 102.23C345.164 99.3199 354.914 94.7112 361.897 91.366L370.186 87.3063L372.424 86.1981C372.671 86.065 372.927 85.9507 373.191 85.8563Z" fill="white"/>
<path d="M165.199 266.3L199.837 267.812L198.231 304.485L163.594 302.972L160.931 363.942L115.341 361.953L118.004 300.984L0.341919 295.806L0.43517 267.843L125.806 87.8447L172.877 89.9161L165.199 266.3ZM46.0453 261.121L119.662 264.332L124.511 153.123L123.402 152.698L119.258 160.621L46.0453 261.121Z" fill="#0084C6"/>
<g opacity="0.4">
<path opacity="0.4" d="M165.199 266.3L199.837 267.812L198.231 304.485L163.594 302.972L160.931 363.942L115.341 361.953L118.004 300.984L0.341919 295.806L0.43517 267.843L125.806 87.8447L172.877 89.9161L165.199 266.3ZM46.0453 261.121L119.662 264.332L124.511 153.123L123.402 152.698L119.258 160.621L46.0453 261.121Z" fill="#005577"/>
</g>
<path d="M194.159 267.563L228.807 269.075L227.201 305.769L192.563 304.257L189.901 365.226L144.311 363.238L146.974 302.268L29.3119 297.09L29.4052 269.127L154.776 89.1292L201.847 91.2005L194.159 267.563ZM75.005 262.385L148.57 265.596L153.429 154.386L152.32 153.962L148.176 161.884L75.005 262.385Z" fill="#0084C6"/>
<path d="M30.0476 274.502C29.7026 274.759 29.3266 274.971 28.9286 275.134C28.1929 275.507 27.1153 276.025 25.8202 276.656C23.147 277.899 19.4377 279.577 15.2828 281.327C11.128 283.077 7.25286 284.579 4.5175 285.625C3.13945 286.143 2.01008 286.557 1.23299 286.827C0.834207 286.986 0.421411 287.107 0 287.189C0.365615 286.961 0.754677 286.774 1.16046 286.63L4.37244 285.273L15.0031 280.83L25.5922 276.304L28.8146 274.937C29.2091 274.749 29.6224 274.603 30.0476 274.502Z" fill="#0084C6"/>
<path d="M46.8846 243.494C46.3824 243.803 45.8597 244.076 45.32 244.313C44.2839 244.81 42.8126 245.514 40.9683 246.384C37.2694 248.072 32.1302 250.319 26.4626 252.732C20.795 255.146 15.5418 257.217 11.7496 258.698C9.86389 259.433 8.28898 260.013 7.25286 260.396C6.70794 260.621 6.14684 260.805 5.57434 260.945C6.08719 260.651 6.62452 260.401 7.18033 260.2L11.6046 258.346L26.2243 252.204L40.8129 245.99L45.2371 244.116C45.7642 243.854 46.3161 243.646 46.8846 243.494Z" fill="#0084C6"/>
<path d="M67.462 215.842C66.9419 216.157 66.398 216.431 65.8353 216.66C64.7991 217.158 63.2139 217.862 61.2867 218.732C57.4219 220.42 52.0652 222.667 46.1075 225.08C40.1498 227.493 34.7101 229.596 30.7936 231.077C28.8249 231.812 27.219 232.392 26.1103 232.775C25.5431 233.004 24.9572 233.185 24.3593 233.314C24.9022 233.033 25.4629 232.787 26.0378 232.579L30.6589 230.714L45.9106 224.573L61.1313 218.359L65.7524 216.453C66.303 216.199 66.8751 215.995 67.462 215.842Z" fill="#0084C6"/>
<path d="M149.937 247.782C149.582 248.02 149.204 248.221 148.808 248.383C148.072 248.745 146.984 249.242 145.648 249.853C142.975 251.055 139.245 252.67 135.09 254.348C130.935 256.026 127.132 257.455 124.376 258.491C122.988 258.988 121.869 259.381 121.081 259.64C120.687 259.808 120.273 259.923 119.848 259.982C120.215 259.763 120.604 259.582 121.009 259.444L124.231 258.139L134.883 253.882L145.503 249.532C146.777 249.014 147.855 248.569 148.725 248.227C149.109 248.029 149.516 247.879 149.937 247.782Z" fill="#0084C6"/>
<path d="M146.58 304.671C146.245 304.919 145.879 305.125 145.492 305.282C144.777 305.645 143.731 306.142 142.436 306.742C139.846 307.954 136.219 309.559 132.209 311.247C128.2 312.936 124.49 314.354 121.848 315.39C120.511 315.887 119.424 316.281 118.667 316.54C118.279 316.692 117.876 316.807 117.465 316.881C117.817 316.661 118.192 316.48 118.584 316.343L121.693 315.038L132.054 310.781L142.332 306.432L145.441 305.116C145.806 304.933 146.187 304.784 146.58 304.671Z" fill="#0084C6"/>
<path d="M146.093 324.618C145.77 324.854 145.423 325.055 145.057 325.219C144.342 325.581 143.296 326.078 141.949 326.689C139.359 327.891 135.732 329.506 131.712 331.184C127.692 332.862 124.003 334.291 121.351 335.327C120.014 335.824 118.926 336.207 118.159 336.466C117.776 336.625 117.376 336.743 116.968 336.818C117.317 336.591 117.693 336.406 118.087 336.269L121.195 334.964L131.557 330.708L141.845 326.358L144.954 325.053C145.316 324.865 145.698 324.719 146.093 324.618Z" fill="#0084C6"/>
<path d="M145.627 344.554C145.289 344.8 144.924 345.005 144.539 345.165C143.824 345.528 142.778 346.025 141.483 346.626C138.882 347.837 135.266 349.443 131.246 351.131C127.226 352.819 123.537 354.238 120.884 355.273C119.538 355.771 118.45 356.164 117.693 356.423C117.308 356.576 116.909 356.691 116.502 356.765C116.852 356.541 117.227 356.36 117.621 356.226L120.729 354.921L131.09 350.665L141.379 346.315L144.487 345.01C144.851 344.82 145.233 344.668 145.627 344.554Z" fill="#0084C6"/>
<path d="M150.476 226.706C150.123 226.951 149.744 227.156 149.347 227.317C148.611 227.68 147.523 228.177 146.238 228.778C143.565 229.989 139.835 231.595 135.68 233.283C131.525 234.971 127.723 236.39 124.967 237.426C123.578 237.923 122.459 238.316 121.672 238.575C121.276 238.728 120.867 238.843 120.449 238.917C120.81 238.693 121.196 238.512 121.599 238.378L124.832 237.073L135.483 232.817L146.093 228.467L149.316 227.152C149.686 226.963 150.075 226.813 150.476 226.706Z" fill="#0084C6"/>
<path d="M151.015 205.641C150.659 205.88 150.281 206.085 149.886 206.252C149.15 206.615 148.072 207.112 146.777 207.712C144.104 208.924 140.374 210.529 136.219 212.218C132.064 213.906 128.262 215.325 125.506 216.36C124.117 216.857 122.998 217.251 122.211 217.499C121.816 217.658 121.407 217.776 120.988 217.852C121.347 217.621 121.733 217.436 122.138 217.303L125.371 215.998L136.022 211.741L146.632 207.391L149.855 206.086C150.224 205.897 150.613 205.748 151.015 205.641Z" fill="#0084C6"/>
<path d="M151.554 184.576C151.229 184.803 150.882 184.997 150.518 185.156C149.813 185.497 148.787 185.984 147.513 186.564C144.964 187.714 141.42 189.257 137.462 190.862C133.504 192.467 129.878 193.824 127.246 194.767L124.138 195.854C123.757 196.003 123.361 196.11 122.957 196.175C123.304 195.965 123.672 195.791 124.055 195.657L127.163 194.404L137.307 190.355L147.42 186.212L150.528 184.969C150.855 184.802 151.199 184.67 151.554 184.576Z" fill="#0084C6"/>
<path d="M153.926 164.888C152.273 165.785 150.538 166.523 148.746 167.094C147.013 167.837 145.212 168.41 143.368 168.802C145.022 167.905 146.756 167.167 148.549 166.597C150.281 165.853 152.082 165.281 153.926 164.888Z" fill="#0084C6"/>
<path d="M88.0705 187.165C87.5463 187.482 86.9991 187.758 86.4334 187.993C85.3973 188.49 83.812 189.184 81.8848 190.065C78.0305 191.742 72.6633 193.99 66.716 196.403C60.7686 198.816 55.3186 200.929 51.4021 202.399C49.4334 203.135 47.8275 203.715 46.7188 204.108C46.1473 204.325 45.5624 204.505 44.9678 204.647C45.5037 204.358 46.0615 204.113 46.6359 203.911L51.2674 202.047L66.5088 195.906L81.7398 189.692L86.3505 187.807C86.9089 187.555 87.4835 187.34 88.0705 187.165Z" fill="#0084C6"/>
<path d="M108.575 158.456C108.049 158.766 107.502 159.04 106.938 159.274C105.902 159.772 104.317 160.476 102.39 161.346C98.5353 163.034 93.1682 165.281 87.2208 167.694C81.2735 170.107 75.8235 172.21 71.8966 173.691C69.928 174.426 68.3323 175.006 67.2133 175.389C66.6498 175.619 66.0674 175.799 65.4726 175.928C66.0099 175.642 66.5675 175.397 67.1408 175.193L71.7619 173.328L87.0343 167.197L102.265 160.983L106.876 159.109C107.421 158.839 107.99 158.62 108.575 158.456Z" fill="#0084C6"/>
<path d="M127.568 129.82C127.043 130.137 126.496 130.414 125.93 130.649C124.894 131.146 123.309 131.84 121.382 132.72C117.527 134.408 112.16 136.656 106.213 139.069C100.266 141.482 94.8156 143.595 90.8991 145.065C88.9305 145.801 87.3245 146.381 86.2158 146.764C85.6452 146.986 85.0602 147.169 84.4648 147.313C85.0007 147.024 85.5585 146.778 86.1329 146.577L90.754 144.713L106.006 138.572L121.237 132.358L125.848 130.473C126.405 130.215 126.98 129.997 127.568 129.82Z" fill="#0084C6"/>
<path d="M147.326 102.251C146.808 102.572 146.264 102.85 145.7 103.08C144.664 103.577 143.078 104.271 141.151 105.151C137.286 106.829 131.93 109.076 125.972 111.489C120.014 113.902 114.575 116.015 110.658 117.486C108.689 118.231 107.083 118.801 105.975 119.194C105.406 119.421 104.821 119.601 104.224 119.733C104.764 119.446 105.325 119.2 105.902 118.998L110.523 117.133L125.775 110.992L140.996 104.778L145.617 102.893C146.171 102.64 146.743 102.426 147.326 102.251Z" fill="#0084C6"/>
<path d="M199.785 144.382C199.602 144.621 199.401 144.846 199.184 145.055C198.596 145.696 197.969 146.301 197.309 146.867C194.886 148.974 192.171 150.718 189.248 152.046C184.897 154.012 180.19 155.07 175.416 155.152C172.593 155.208 169.775 154.895 167.033 154.22C164.105 153.463 161.264 152.401 158.558 151.051C152.994 148.338 148.041 145.138 143.192 142.911C138.955 140.832 134.342 139.627 129.629 139.369C126.452 139.206 123.281 139.799 120.377 141.099C119.596 141.469 118.844 141.899 118.128 142.383C117.888 142.568 117.631 142.731 117.362 142.87C117.583 142.663 117.818 142.473 118.066 142.3C118.76 141.769 119.503 141.304 120.284 140.912C123.188 139.521 126.39 138.863 129.609 138.996C134.388 139.199 139.074 140.38 143.379 142.466C148.269 144.682 153.232 147.882 158.765 150.575C161.438 151.896 164.24 152.937 167.127 153.682C169.837 154.356 172.623 154.677 175.416 154.635C180.133 154.558 184.787 153.536 189.103 151.631C192.014 150.344 194.734 148.66 197.185 146.629C198.065 145.925 198.687 145.303 199.112 144.899C199.319 144.706 199.545 144.532 199.785 144.382Z" fill="#0084C6"/>
<path d="M185.362 93.2096C184.948 93.5042 184.507 93.7607 184.047 93.976C183.187 94.4524 181.902 95.0117 180.285 95.7366C178.39 96.5313 176.453 97.2228 174.483 97.8079C172.066 98.4943 169.609 99.0339 167.127 99.4236C164.64 99.8172 162.131 100.063 159.615 100.159C157.563 100.232 155.508 100.191 153.46 100.035C152.071 99.9485 150.688 99.7895 149.316 99.5582C148.811 99.5016 148.311 99.4011 147.824 99.2579C148.333 99.2401 148.843 99.2713 149.347 99.3511C150.31 99.465 151.72 99.5789 153.491 99.6618C155.263 99.7446 157.315 99.755 159.604 99.6618C162.1 99.5389 164.586 99.2831 167.054 98.8954C169.517 98.4823 171.955 97.9361 174.359 97.259C176.566 96.6169 178.503 95.9541 180.151 95.312C181.798 94.6699 183.073 94.1313 183.964 93.7171C184.414 93.507 184.882 93.3372 185.362 93.2096Z" fill="#0084C6"/>
<path d="M111.798 208.168C111.456 207.852 111.144 207.505 110.865 207.132L108.41 204.212C105.684 201.037 102.789 198.012 99.7372 195.15C98.0816 193.574 96.2574 192.184 94.2976 191.007C92.6991 190.043 90.9468 189.359 89.117 188.988C87.4034 188.685 85.65 188.685 83.9364 188.988C83.9364 188.988 84.04 188.926 84.2679 188.853C84.6053 188.742 84.9522 188.663 85.304 188.615C86.5765 188.401 87.8756 188.401 89.1481 188.615C91.0484 188.94 92.876 189.599 94.5463 190.562C96.5561 191.745 98.4201 193.16 100.1 194.777C103.178 197.649 106.055 200.728 108.71 203.994C109.746 205.248 110.513 206.294 111.031 207.029C111.328 207.379 111.586 207.761 111.798 208.168Z" fill="#0084C6"/>
<path d="M194.449 239.487C194.324 239.602 194.189 239.706 194.045 239.797C193.765 239.973 193.361 240.274 192.812 240.584C191.268 241.503 189.641 242.277 187.953 242.894C182.349 245.008 176.262 245.492 170.394 244.292C164.526 243.091 159.119 240.255 154.797 236.11C153.492 234.878 152.303 233.529 151.243 232.082C150.86 231.574 150.611 231.149 150.424 230.87C150.238 230.59 150.155 230.435 150.176 230.424C150.196 230.414 150.621 230.973 151.409 231.957C152.523 233.343 153.746 234.639 155.066 235.831C159.388 239.832 164.724 242.573 170.495 243.754C176.266 244.935 182.25 244.513 187.797 242.531C189.478 241.949 191.109 241.236 192.677 240.398C193.249 240.059 193.841 239.755 194.449 239.487Z" fill="#0084C6"/>
<path d="M224.632 305.054C224.632 305.054 224.528 304.899 224.341 304.578L223.513 303.138C222.471 301.298 221.286 299.542 219.969 297.888L218.56 296.23L217.803 295.329L216.923 294.47L215.058 292.637L212.882 290.824C209.407 288.064 205.573 285.789 201.485 284.061C196.549 281.975 191.292 280.753 185.943 280.447C179.785 280.122 173.629 281.11 167.883 283.347C161.822 285.729 155.968 289.333 149.772 292.813C146.631 294.618 143.382 296.226 140.042 297.629C136.587 299.085 132.941 300.041 129.215 300.466C125.476 300.842 121.702 300.615 118.035 299.793C114.488 299.002 111.037 297.825 107.746 296.282C101.575 293.297 95.7011 289.733 90.2049 285.636C84.8896 281.855 79.8437 278.21 74.8599 275.279C70.2661 272.485 65.2934 270.368 60.0952 268.993C55.7896 267.938 51.3329 267.644 46.926 268.123C43.5973 268.466 40.3577 269.406 37.3626 270.898C35.488 271.855 33.7465 273.053 32.182 274.461L31.0112 275.631C30.7521 275.89 30.6071 276.014 30.6071 276.014C30.6071 276.014 30.7211 275.869 30.9697 275.6L32.1095 274.388C33.658 272.929 35.4015 271.692 37.2901 270.712C40.2991 269.17 43.5647 268.191 46.926 267.822C51.3698 267.311 55.8688 267.581 60.2195 268.62C65.4579 269.983 70.47 272.1 75.0982 274.906C80.1441 277.816 85.1797 281.462 90.5054 285.263C95.974 289.333 101.82 292.871 107.964 295.827C111.213 297.351 114.617 298.518 118.118 299.306C121.73 300.114 125.449 300.337 129.132 299.969C132.829 299.53 136.445 298.575 139.877 297.132C143.196 295.741 146.425 294.143 149.544 292.347C155.76 288.888 161.615 285.284 167.728 282.881C169.237 282.294 170.78 281.796 172.349 281.389C173.126 281.193 173.893 280.965 174.659 280.799L176.98 280.416C179.963 279.972 182.983 279.833 185.994 280.002C191.408 280.329 196.724 281.583 201.712 283.709C205.805 285.476 209.639 287.789 213.11 290.586L215.286 292.43C215.935 293.072 216.557 293.693 217.151 294.294L218.021 295.164L218.777 296.075L220.176 297.763C221.483 299.436 222.644 301.217 223.647 303.087L224.424 304.547C224.559 304.878 224.632 305.054 224.632 305.054Z" fill="#0084C6"/>
<path d="M193.32 348.314C193.15 348.38 192.972 348.425 192.791 348.448L191.258 348.749C190.453 348.907 189.64 349.025 188.823 349.101C187.86 349.194 186.751 349.36 185.57 349.381L183.663 349.463C183 349.463 182.316 349.463 181.591 349.463C180.171 349.463 178.648 349.329 177.053 349.204C173.595 348.827 170.174 348.161 166.826 347.216C163.491 346.224 160.246 344.949 157.128 343.405C155.719 342.649 154.362 341.965 153.16 341.188C152.559 340.805 151.958 340.474 151.409 340.091L149.855 339.003C148.818 338.33 148.01 337.615 147.254 337.015C146.605 336.511 145.983 335.976 145.389 335.409L144.259 334.374C144.004 334.125 143.88 333.991 143.886 333.97C144.047 334.059 144.197 334.167 144.332 334.291L145.534 335.327C146.042 335.762 146.674 336.29 147.451 336.859C148.228 337.429 149.057 338.123 150.072 338.765L151.637 339.801C152.186 340.163 152.787 340.484 153.388 340.836C154.59 341.582 155.947 342.255 157.356 342.99C160.46 344.491 163.679 345.741 166.982 346.729C170.296 347.671 173.681 348.343 177.105 348.738C178.69 348.873 180.213 349.039 181.601 349.049C182.316 349.049 183 349.111 183.674 349.049H185.559C186.761 349.049 187.849 348.914 188.802 348.852C189.756 348.79 190.574 348.687 191.237 348.593L192.781 348.397C192.956 348.343 193.137 348.315 193.32 348.314Z" fill="#0084C6"/>
<path d="M615.136 266.724L649.649 263.358L653.224 299.907L618.721 303.283L624.658 364.014L579.276 368.457L573.328 307.716L456.122 319.181L452.278 291.497L551.072 95.664L597.957 91.1382L615.136 266.724ZM496.427 278.334L569.754 271.167L558.916 160.351L557.755 160.082L554.792 168.513L496.427 278.334Z" fill="#0073A0"/>
<path d="M644.002 263.907L678.505 260.531L682.08 297.09L647.577 300.466L653.514 361.198L608.132 365.589L602.195 304.899L484.978 316.353L481.134 288.68L579.929 92.8471L626.855 88.2592L644.002 263.907ZM525.314 275.486L598.651 268.309L587.803 157.493L586.643 157.234L583.648 165.706L525.314 275.486Z" fill="#0084C6"/>
<path d="M488.263 95.281C488.118 95.5718 487.937 95.8432 487.724 96.0888C487.351 96.5756 486.791 97.2798 486.087 98.1601C484.678 99.8483 482.647 102.137 480.264 104.519C479.083 105.679 477.974 106.984 476.451 107.46C475.743 107.704 474.973 107.704 474.265 107.46C473.655 107.211 473.155 106.752 472.856 106.166C472.432 105.332 472.297 104.381 472.472 103.463C472.495 103.139 472.58 102.823 472.721 102.531C472.748 102.848 472.748 103.166 472.721 103.483C472.645 104.324 472.822 105.167 473.229 105.907C473.506 106.385 473.942 106.752 474.462 106.943C475.07 107.149 475.729 107.149 476.337 106.943C477.653 106.518 478.73 105.275 479.922 104.105C482.295 101.723 484.357 99.4858 485.838 97.8909C486.589 96.9696 487.399 96.0978 488.263 95.281Z" fill="#EB996E"/>
<path d="M496.168 95.281C495.999 95.5771 495.789 95.8488 495.547 96.0888C495.122 96.5756 494.511 97.2902 493.702 98.1601L490.915 101.174L489.257 102.945C488.665 103.602 488.013 104.201 487.309 104.737C486.587 105.317 485.713 105.676 484.792 105.772C484.343 105.819 483.891 105.748 483.478 105.567C483.066 105.385 482.708 105.099 482.44 104.737C482.181 104.39 482.046 103.967 482.056 103.535C482.075 103.142 482.197 102.76 482.409 102.427C482.792 101.816 483.186 101.329 483.517 100.853C484.211 99.9104 484.781 99.1544 485.185 98.6366C485.372 98.3502 485.599 98.0921 485.859 97.8702C485.722 98.1846 485.552 98.4832 485.351 98.7608C485.009 99.3097 484.491 100.097 483.838 101.07C483.517 101.557 483.124 102.106 482.802 102.645C482.622 102.913 482.531 103.231 482.54 103.554C482.549 103.877 482.659 104.189 482.854 104.447C483.074 104.735 483.366 104.96 483.701 105.1C484.035 105.24 484.401 105.29 484.761 105.244C485.578 105.147 486.355 104.833 487.009 104.333C487.682 103.787 488.306 103.184 488.874 102.531L490.563 100.791L493.433 97.8598C494.252 97.0209 494.925 96.3581 495.402 95.9128C495.878 95.4674 496.148 95.281 496.168 95.281Z" fill="#EB996E"/>
<path d="M475.321 76.3593L483.61 61.3629C478.287 52.9128 476.318 42.778 478.092 32.9507C479.865 23.1234 485.252 14.3146 493.193 8.25588C501.135 2.19719 511.056 -0.673103 521.007 0.209269C530.958 1.09164 540.22 5.66285 546.97 13.0243C553.72 20.3857 557.472 30.0048 557.486 39.9906C557.501 49.9764 553.779 59.6067 547.05 66.9881C540.322 74.3696 531.074 78.9683 521.126 79.8802C511.177 80.7922 501.247 77.9514 493.288 71.9163L475.321 76.3593Z" fill="white"/>
<path d="M475.321 76.3594L493.319 71.8025L493.246 72.02L492.614 71.2225L493.433 71.8335C495.999 73.7469 498.781 75.3528 501.722 76.6183C505.196 78.1173 508.866 79.1113 512.622 79.5699C514.7 79.833 516.798 79.9127 518.89 79.8081C519.927 79.7253 521.066 79.6839 522.165 79.5803L525.501 79.0314C535.42 76.9588 544.18 71.1944 550.005 62.9061C553.198 58.3072 555.378 53.0826 556.398 47.5783C557.488 41.7566 557.28 35.766 555.787 30.0342C554.237 24.0495 551.286 18.5189 547.177 13.8986L545.55 12.1483C545.011 11.558 544.379 11.1127 543.799 10.5327C543.225 9.98751 542.623 9.47244 541.996 8.98956L540.09 7.59142C539.463 7.12263 538.805 6.69702 538.121 6.31756L536.111 5.17833L534.039 4.14267C533.368 3.79247 532.676 3.48462 531.966 3.22093C526.305 1.03816 520.224 0.160214 514.176 0.652484C508.482 1.08902 502.953 2.77202 497.981 5.58224C489.042 10.6556 482.389 18.9622 479.393 28.7914C478.195 32.9741 477.643 37.3153 477.756 41.6647C477.992 48.6383 480.065 55.4262 483.766 61.3423V61.4044V61.4769L475.321 76.4112C475.767 75.6137 478.305 70.9429 483.538 61.3526V61.4769C479.781 55.5506 477.658 48.7373 477.383 41.7268C477.254 37.3345 477.796 32.9482 478.989 28.7189C481.994 18.7642 488.702 10.3395 497.733 5.17833C502.766 2.31933 508.364 0.597706 514.135 0.134653C520.231 -0.362047 526.361 0.519339 532.07 2.71345C532.808 2.97701 533.528 3.28837 534.225 3.64555L536.359 4.68121L538.432 5.88258C539.124 6.27269 539.792 6.70503 540.431 7.17716L542.359 8.59601C542.992 9.08631 543.601 9.60826 544.182 10.1599C544.773 10.7088 545.415 11.1955 545.964 11.7962L547.612 13.5775C551.773 18.2583 554.763 23.8594 556.336 29.9203C557.835 35.7111 558.044 41.7602 556.947 47.6405C555.886 53.2334 553.631 58.532 550.337 63.1754C544.432 71.5492 535.559 77.3627 525.522 79.4353L522.144 79.9738C521.025 80.0774 519.916 80.1188 518.828 80.1913C516.714 80.2907 514.596 80.2006 512.498 79.9221C508.7 79.449 504.99 78.4305 501.484 76.8979C498.539 75.607 495.756 73.9732 493.195 72.0303L493.381 71.8335L493.505 71.9992H493.309L475.321 76.3594Z" fill="white"/>
<path d="M506.395 33.2861H511.575C511.567 32.694 511.678 32.1063 511.901 31.5577C512.124 31.0092 512.455 30.511 512.874 30.0928C513.294 29.6745 513.793 29.3447 514.342 29.123C514.892 28.9012 515.48 28.7919 516.072 28.8017C516.954 28.7424 517.833 28.9667 518.578 29.4418C519.324 29.917 519.898 30.6181 520.217 31.4427C520.499 32.1195 520.617 32.8539 520.559 33.5851C520.501 34.3163 520.27 35.0232 519.885 35.6474C519.025 37.1077 517.108 38.4541 513.596 37.8638L513.71 49.5771H518.89L518.818 42.721C520.921 42.0806 522.756 40.7685 524.042 38.9857C525.328 37.203 525.993 35.0481 525.936 32.8512C525.864 25.2598 519.025 23.5302 516.114 23.5923C513.803 23.5198 506.208 24.1309 506.395 33.2861Z" fill="#0084C6"/>
<path d="M518.889 51.8973L513.677 51.9473L513.724 56.8147L518.935 56.7646L518.889 51.8973Z" fill="#0084C6"/>
</svg>
