<svg width="35" height="39" viewBox="0 0 35 39" fill="none" xmlns="http://www.w3.org/2000/svg">
<rect x="2.94116" y="6.32352" width="28.8235" height="28.6765" fill="#F1F1F1"/>
<path d="M6.17648 21.1765L13.1618 32.5L28.8235 8.82352L13.1618 24.6323L8.67648 21.1765H6.17648Z" fill="#30AA06"/>
<path fill-rule="evenodd" clip-rule="evenodd" d="M1.76471 3.08823C0.790086 3.08823 0 3.87831 0 4.85293V36.4706C0 37.4452 0.790086 38.2353 1.76471 38.2353H33.2353C34.2099 38.2353 35 37.4452 35 36.4706V4.85293C35 3.87831 34.2099 3.08823 33.2353 3.08823H1.76471ZM4.11765 6.17648C3.63034 6.17648 3.2353 6.57152 3.2353 7.05883V33.9706C3.2353 34.4579 3.63034 34.8529 4.11765 34.8529H31.0294C31.5167 34.8529 31.9118 34.4579 31.9118 33.9706V7.05883C31.9118 6.57152 31.5167 6.17648 31.0294 6.17648H4.11765Z" fill="#515151"/>
<rect x="5.14706" width="3.23529" height="7.64706" rx="1.61765" fill="#0C7DBE"/>
<rect x="10.147" width="3.23529" height="7.64706" rx="1.61765" fill="#0C7DBE"/>
</svg>
