<svg id="Camada_1" data-name="Camada 1" xmlns="http://www.w3.org/2000/svg" xmlns:xlink="http://www.w3.org/1999/xlink" viewBox="0 0 1200 1200"><defs><style>.cls-1{fill:none;}.cls-2{fill:#d1d0d1;}.cls-3{clip-path:url(#clip-path);}.cls-4{fill:#b8b8b8;}.cls-5{fill:#ebebeb;}.cls-6{fill:#969696;}.cls-7{fill:#f6e820;}.cls-8{fill:#010101;opacity:0.14;}.cls-9{fill:#eaeaea;}</style><clipPath id="clip-path"><rect class="cls-1" width="1200" height="1200"/></clipPath></defs><rect class="cls-2" width="1200" height="1200"/><g class="cls-3"><path class="cls-4" d="M1036.34,893.29l84.62,109s38.86-88.14,81-77.78c4.24-1.32-148.14-165.84-148.14-165.84Z"/><ellipse class="cls-5" cx="1159.96" cy="968.18" rx="62" ry="57.72"/><path class="cls-4" d="M1035.46,1154.85c5-24.63,12.9-49,21.23-72.1,46.38-23.91,89.93-30,129.61-18,46.71,14.13,76.89,50.22,90.94,70.88A759.44,759.44,0,0,1,1275.8,1237a41.45,41.45,0,0,1-6.5,19.08c-21.4,33.19-102.81,135.65-215.15-16.15A107.19,107.19,0,0,1,1035.46,1154.85Z"/><path class="cls-6" d="M1186.3,1064.74c-39.68-12-83.23-5.9-129.61,18,1-2.72,2-5.42,3-8.12,45.67-22.25,88.78-27.52,128.35-15.55,42.83,13,72.24,43.7,88.53,65.43q.4,5.61.7,11.11C1263.19,1115,1233,1078.87,1186.3,1064.74Z"/><path class="cls-4" d="M1086.5,999.61c.41-1.42.91-2.8,1.39-4.2.95-2.76,2-5.48,3.2-8.13a89.34,89.34,0,0,1,27.21-34.34c29-22.08,77.83-43.33,117.18,18.86a196.75,196.75,0,0,1,14.94,29.07q2.16,5.11,4.11,10.4c13,35.39,19.32,75.89,22,113.24-16.29-21.73-45.7-52.48-88.53-65.43-39.57-12-82.68-6.7-128.35,15.55C1069.75,1047.21,1080.09,1021.67,1086.5,999.61Z"/><path class="cls-6" d="M1078.64,1024.3c.95-2.77.79-5,2-7.65,30.88-14.53,56.2-39.3,104.58-30.88,46.89,8.15,56.85,29.71,75,42.49,1.44,3.41,1.09,5.14,2.38,8.66-18.52-14.45-38.17-38.92-77.8-44.09C1141.8,987.23,1110.38,1008.13,1078.64,1024.3Z"/><ellipse class="cls-6" cx="1152.11" cy="1205.73" rx="99.11" ry="128.37" transform="translate(-376.87 1871.6) rotate(-69.84)"/><ellipse class="cls-4" cx="1146.3" cy="1237.76" rx="87.94" ry="98.81" transform="translate(-468.93 1724.68) rotate(-63.97)"/><path class="cls-4" d="M163.66,893.29,79,1002.31S40.18,914.17-1.91,924.53c-4.24-1.32,148.14-165.84,148.14-165.84Z"/><ellipse class="cls-5" cx="40.04" cy="968.18" rx="62" ry="57.72"/><path class="cls-4" d="M164.54,1154.85c-5-24.63-12.9-49-21.23-72.1-46.38-23.91-89.93-30-129.61-18C-33,1078.87-63.19,1115-77.24,1135.62A759.44,759.44,0,0,0-75.8,1237a41.45,41.45,0,0,0,6.5,19.08c21.4,33.19,102.81,135.65,215.15-16.15A107.19,107.19,0,0,0,164.54,1154.85Z"/><path class="cls-6" d="M13.7,1064.74c39.68-12,83.23-5.9,129.61,18-1-2.72-2-5.42-3-8.12-45.67-22.25-88.78-27.52-128.35-15.55-42.83,13-72.24,43.7-88.53,65.43q-.4,5.61-.7,11.11C-63.19,1115-33,1078.87,13.7,1064.74Z"/><path class="cls-4" d="M113.5,999.61c-.41-1.42-.91-2.8-1.39-4.2-1-2.76-2-5.48-3.2-8.13A89.34,89.34,0,0,0,81.7,952.94c-29-22.08-77.83-43.33-117.18,18.86a196.75,196.75,0,0,0-14.94,29.07q-2.16,5.11-4.11,10.4c-13,35.39-19.32,75.89-22,113.24,16.29-21.73,45.7-52.48,88.53-65.43,39.57-12,82.68-6.7,128.35,15.55C130.25,1047.21,119.91,1021.67,113.5,999.61Z"/><path class="cls-6" d="M121.36,1024.3c-1-2.77-.79-5-2-7.65-30.88-14.53-56.2-39.3-104.58-30.88-46.89,8.15-56.85,29.71-75,42.49-1.44,3.41-1.09,5.14-2.38,8.66C-44,1022.47-24.38,998,15.25,992.83,58.2,987.23,89.62,1008.13,121.36,1024.3Z"/><ellipse class="cls-6" cx="47.89" cy="1205.73" rx="128.37" ry="99.11" transform="translate(-412.69 90.41) rotate(-20.16)"/><ellipse class="cls-4" cx="53.7" cy="1237.76" rx="98.81" ry="87.94" transform="translate(-537.68 149.09) rotate(-26.03)"/><path class="cls-5" d="M994.17,727.5h103.29a24.36,24.36,0,0,1,24.38,25.15c-1.43,43.75-20.31,134.65-143.48,192.22C852.88,1016,994.17,727.5,994.17,727.5Z"/><path class="cls-5" d="M205.83,727.5H102.54a24.36,24.36,0,0,0-24.38,25.15C79.59,796.4,98.47,887.3,221.64,944.87,347.12,1016,205.83,727.5,205.83,727.5Z"/><path class="cls-4" d="M991.71,702c-33.72-27.47-101.11-66-201.06-49-4.24.72-8.51,1.51-12.86,2.43-153.18,32.55-176.49,41-177.79,41.48-1.3-.5-24.61-8.93-177.79-41.48-4-.84-7.87-1.57-11.74-2.24C309.9,635.65,242.13,674.37,208.29,702a78.09,78.09,0,0,0-29,59.88c-.27,32,4.55,89,27.5,184C316.13,1430,546,1449.36,598.18,1449.76h1.76v0c52.28-.4,283.93-19.76,393.24-503.89,23-95.07,27.77-152.07,27.49-184A78.05,78.05,0,0,0,991.71,702ZM794.85,843.68a33.76,33.76,0,0,0-23,32V1096c0,126-114.61,171.6-172.76,171.9-58.25-.49-171-46.11-171-171.9V875.72a33.76,33.76,0,0,0-23-32c-64.21-21.62-231.75-86.94-89.65-138.91,83-30.36,261.64,12.14,282.38,17.25v.76l1.54-.38.52.13v-.26c20.85-5.11,201.49-47.87,284.56-17.5C1026.6,756.74,859.06,822.06,794.85,843.68Z"/><path class="cls-7" d="M600.06,722.53V696.87l-.06,0-.06,0v25.66h.12Z"/><path class="cls-7" d="M600.06,722.56v0H600Z"/><path class="cls-5" d="M600.06,1268c58-.06,171.8-45.53,171.8-171.92V875.72a33.76,33.76,0,0,1,23-32c64.21-21.62,231.75-86.94,89.65-138.91-87.63-32-281.81-42.6-284.44-41.93h-.12c-2.63-.67-196.81,9.89-284.44,41.93-142.1,52,25.44,117.29,89.65,138.91a33.76,33.76,0,0,1,23,32V1096c0,126.39,113.8,171.86,171.8,171.92"/><path class="cls-4" d="M622,1016.89a2.43,2.43,0,0,0-2-2.79,2.48,2.48,0,0,0-1.24.12c-24.23,10.11-38.24,34.81-40.45,38.92a2.34,2.34,0,0,0-.29,1.24l1.7,54.57v.2a92.47,92.47,0,0,0,22.71,2.83,94.84,94.84,0,0,0,14-1.06,5.51,5.51,0,0,0,.15-1.4A692.85,692.85,0,0,1,622,1016.89Z"/><ellipse class="cls-4" cx="600.02" cy="980.79" rx="26.53" ry="26.47"/><path class="cls-4" d="M669.48,1080.51l.4-.44c.78-.94,1.56-1.89,2.31-2.83l.06-.07a93.43,93.43,0,0,0,20.37-58.33C692.54,967.57,651.11,926,600,926s-92.52,41.56-92.6,92.87a93.42,93.42,0,0,0,19.92,57.76l.21.26c.53.68,1.09,1.35,1.64,2l.75.88q.77.9,1.56,1.77c.52.58.94,1,1.45,1.57l.09.1a92.62,92.62,0,0,0,37.52,24V1090a77.31,77.31,0,0,1-47.1-71.24c0-42.57,34.35-77.2,76.56-77.2s76.57,34.63,76.57,77.2A77.24,77.24,0,0,1,621.07,1093v16.6A92.44,92.44,0,0,0,665.29,1085l1.12-1.15c.37-.39.94-.94,1.32-1.4C668.33,1081.81,668.91,1081.16,669.48,1080.51Z"/><path class="cls-7" d="M600,722.54h-.06v0Z"/><ellipse class="cls-8" cx="601.09" cy="747.24" rx="408.39" ry="127.82"/><path class="cls-6" d="M675.14,638.64H525v118h0c0,.18,0,.35,0,.54,0,27.17,33.62,49.2,75.08,49.2s75.08-22,75.08-49.2c0-.19,0-.36,0-.54h0Z"/><ellipse class="cls-6" cx="964.89" cy="452.24" rx="59.84" ry="85.79" transform="translate(-81.27 249.57) rotate(-14.15)"/><ellipse class="cls-6" cx="237.29" cy="452.24" rx="85.79" ry="59.84" transform="translate(-259.23 571.79) rotate(-75.85)"/><path class="cls-9" d="M911.53,305.59c-6.64-11.32-16.38-19.69-27.59-23.83-14.22-5.25-28.14-9.94-41.82-14.29-117.27-37.38-211.85-43.57-237.3-44.56l-.52,0v-.18l-3.21.07-3.21-.07v.18c-27.65,1-142.76,8.32-279.64,58.87-11.2,4.14-20.94,12.51-27.58,23.83-33.48,57.05-97.54,210.15-85.21,287a38.92,38.92,0,0,0,11.05,21.73C328.23,722.9,553.83,728.53,597.37,733.54h7.45c43.54-5,269.13-10.64,380.86-119.19a38.93,38.93,0,0,0,11.06-21.73C1009.06,515.74,945,362.64,911.53,305.59Z"/><path class="cls-4" d="M911.53,305.59c-6.64-11.32-16.38-19.69-27.59-23.83-14.22-5.25-28.14-9.94-41.82-14.29-117.27-37.38-211.85-43.57-237.3-44.56l-.52,0v-.18l-3.21.07-3.21-.07v.18c-27.65,1-142.76,8.32-279.64,58.87-11.2,4.14-20.94,12.51-27.58,23.83-33.48,57.05-97.54,210.15-85.21,287a38.92,38.92,0,0,0,11.05,21.73C328.23,722.9,553.83,728.53,597.37,733.54h7.45c43.54-5,269.13-10.64,380.86-119.19a38.93,38.93,0,0,0,11.06-21.73C1009.06,515.74,945,362.64,911.53,305.59Z"/><path class="cls-5" d="M824.91,417.29A37.88,37.88,0,0,0,805,403.62c-98.69-29-181.69-33.18-201.63-33.78v-.1l-2.31,0-2.31,0v.1c-19.94.6-102.94,4.78-201.62,33.78a37.9,37.9,0,0,0-19.89,13.67C353.13,450,307,537.85,315.83,582a21.23,21.23,0,0,0,8,12.47c80.56,62.27,474,62.27,554.58,0a21.18,21.18,0,0,0,8-12.47C895.24,537.85,849.05,450,824.91,417.29Z"/><path class="cls-5" d="M791,252.57c-94.8-25.17-168-29.9-189.93-30.75-21.92.85-95.13,5.58-189.93,30.75q-22.92,6.07-47.37,13.81c3.15,5.3,5.78,9.83,7.45,12.9l.33.6c10.07,18.07,29.86,28.53,50.54,28.53,0,0,134.24-11.35,179-11.35s179,11.35,179,11.35c20.69,0,40.47-10.46,50.54-28.53l.33-.6c1.67-3.07,4.31-7.6,7.46-12.9Q814,258.6,791,252.57Z"/><ellipse class="cls-4" cx="482.09" cy="515.24" rx="27.47" ry="75.71"/><ellipse class="cls-4" cx="720.09" cy="515.24" rx="27.47" ry="75.71"/><ellipse class="cls-6" cx="482.09" cy="515.24" rx="21.51" ry="67.99"/><ellipse class="cls-6" cx="720.09" cy="515.24" rx="21.51" ry="67.99"/></g></svg>
